<svg width="34" height="34" viewBox="0 0 34 34" fill="none" xmlns="http://www.w3.org/2000/svg">
<path d="M26.3977 18.0625L5.14771 18.0625C4.86591 18.0625 4.59566 17.9506 4.3964 17.7513C4.19715 17.552 4.08521 17.2818 4.08521 17C4.08521 16.7182 4.19715 16.448 4.3964 16.2487C4.59566 16.0494 4.86591 15.9375 5.14771 15.9375L26.3977 15.9375C26.6795 15.9375 26.9497 16.0494 27.149 16.2487C27.3483 16.448 27.4602 16.7182 27.4602 17C27.4602 17.2818 27.3483 17.552 27.149 17.7513C26.9497 17.9506 26.6795 18.0625 26.3977 18.0625Z" fill="black"/>
<path d="M26.1227 17.0001L17.3103 8.18987C17.1108 7.99036 16.9987 7.71977 16.9987 7.43762C16.9987 7.15547 17.1108 6.88488 17.3103 6.68537C17.5098 6.48586 17.7804 6.37378 18.0626 6.37378C18.3447 6.37378 18.6153 6.48586 18.8148 6.68537L28.3773 16.2479C28.4763 16.3466 28.5548 16.4638 28.6083 16.5929C28.6619 16.722 28.6895 16.8604 28.6895 17.0001C28.6895 17.1399 28.6619 17.2783 28.6083 17.4073C28.5548 17.5364 28.4763 17.6537 28.3773 17.7524L18.8148 27.3149C18.6153 27.5144 18.3447 27.6265 18.0626 27.6265C17.7804 27.6265 17.5098 27.5144 17.3103 27.3149C17.1108 27.1154 16.9987 26.8448 16.9987 26.5626C16.9987 26.2805 17.1108 26.0099 17.3103 25.8104L26.1227 17.0001Z" fill="black"/>
</svg>
