<svg width="22" height="23" viewBox="0 0 22 23" fill="none" xmlns="http://www.w3.org/2000/svg">
<path d="M13.1164 23H8.88363C8.60145 23 8.35689 22.9042 8.14995 22.7125C7.94302 22.5208 7.82074 22.2812 7.78312 21.9937L7.4445 19.32C7.19994 19.2242 6.96968 19.1092 6.75371 18.975C6.537 18.8408 6.32517 18.6971 6.11824 18.5437L3.66325 19.5787C3.39988 19.6746 3.13651 19.6842 2.87313 19.6075C2.60976 19.5308 2.40283 19.3679 2.25233 19.1187L0.164179 15.41C0.0136816 15.1608 -0.0333489 14.8925 0.0230877 14.605C0.0795243 14.3175 0.220616 14.0875 0.446362 13.915L2.56273 12.2762C2.54392 12.1421 2.53451 12.0125 2.53451 11.8875V11.1113C2.53451 10.9871 2.54392 10.8579 2.56273 10.7237L0.446362 9.085C0.220616 8.9125 0.0795243 8.6825 0.0230877 8.395C-0.0333489 8.1075 0.0136816 7.83917 0.164179 7.59L2.25233 3.88125C2.38402 3.61292 2.58606 3.44502 2.85846 3.37755C3.13161 3.31085 3.39988 3.32542 3.66325 3.42125L6.11824 4.45625C6.32517 4.30292 6.54151 4.15917 6.76726 4.025C6.993 3.89083 7.21875 3.77583 7.4445 3.68L7.78312 1.00625C7.82074 0.71875 7.94302 0.479167 8.14995 0.2875C8.35689 0.0958333 8.60145 0 8.88363 0H13.1164C13.3986 0 13.6431 0.0958333 13.85 0.2875C14.057 0.479167 14.1793 0.71875 14.2169 1.00625L14.5555 3.68C14.8001 3.77583 15.0307 3.89083 15.2474 4.025C15.4634 4.15917 15.6748 4.30292 15.8818 4.45625L18.3368 3.42125C18.6001 3.32542 18.8635 3.31583 19.1269 3.3925C19.3902 3.46917 19.5972 3.63208 19.7477 3.88125L21.8358 7.59C21.9863 7.83917 22.0333 8.1075 21.9769 8.395C21.9205 8.6825 21.7794 8.9125 21.5536 9.085L19.4373 10.7237C19.4561 10.8579 19.4655 10.9871 19.4655 11.1113V11.8875C19.4655 12.0125 19.4467 12.1421 19.409 12.2762L21.5254 13.915C21.7512 14.0875 21.8923 14.3175 21.9487 14.605C22.0051 14.8925 21.9581 15.1608 21.8076 15.41L19.7194 19.09C19.569 19.3392 19.3575 19.5071 19.0851 19.5937C18.812 19.6796 18.5437 19.6746 18.2803 19.5787L15.8818 18.5437C15.6748 18.6971 15.4585 18.8408 15.2327 18.975C15.007 19.1092 14.7812 19.2242 14.5555 19.32L14.2169 21.9937C14.1793 22.2812 14.057 22.5208 13.85 22.7125C13.6431 22.9042 13.3986 23 13.1164 23ZM11.0564 15.525C12.1475 15.525 13.0787 15.1321 13.85 14.3463C14.6213 13.5604 15.007 12.6117 15.007 11.5C15.007 10.3883 14.6213 9.43958 13.85 8.65375C13.0787 7.86792 12.1475 7.475 11.0564 7.475C9.94652 7.475 9.01042 7.86792 8.24815 8.65375C7.48664 9.43958 7.10588 10.3883 7.10588 11.5C7.10588 12.6117 7.48664 13.5604 8.24815 14.3463C9.01042 15.1321 9.94652 15.525 11.0564 15.525Z" fill="black"/>
</svg>
